<svg width="40" height="40" viewBox="0 0 40 40" fill="none" xmlns="http://www.w3.org/2000/svg">
<path d="M36.6663 16.2499C35.983 16.2499 35.4163 15.6833 35.4163 14.9999V11.6666C35.4163 7.36659 32.633 4.58325 28.333 4.58325H11.6663C7.36634 4.58325 4.58301 7.36659 4.58301 11.6666V14.9999C4.58301 15.6833 4.01634 16.2499 3.33301 16.2499C2.64967 16.2499 2.08301 15.6833 2.08301 14.9999V11.6666C2.08301 5.93325 5.93301 2.08325 11.6663 2.08325H28.333C34.0663 2.08325 37.9163 5.93325 37.9163 11.6666V14.9999C37.9163 15.6833 37.3497 16.2499 36.6663 16.2499Z" fill="#8E99A7"/>
<path d="M28.333 37.9167H11.6663C5.93301 37.9167 2.08301 34.0667 2.08301 28.3333V25C2.08301 24.3167 2.64967 23.75 3.33301 23.75C4.01634 23.75 4.58301 24.3167 4.58301 25V28.3333C4.58301 32.6333 7.36634 35.4167 11.6663 35.4167H28.333C32.633 35.4167 35.4163 32.6333 35.4163 28.3333V25C35.4163 24.3167 35.983 23.75 36.6663 23.75C37.3497 23.75 37.9163 24.3167 37.9163 25V28.3333C37.9163 34.0667 34.0663 37.9167 28.333 37.9167Z" fill="#8E99A7"/>
<path d="M27.3336 13.6834L21.0669 10.3001C20.4003 9.9501 19.6169 9.9501 18.9503 10.3001L12.6669 13.6834C12.2169 13.9334 11.9336 14.4168 11.9336 14.9501C11.9336 15.5001 12.2169 15.9834 12.6669 16.2334L18.9336 19.6168C19.2669 19.8001 19.6336 19.8834 20.0003 19.8834C20.3669 19.8834 20.7336 19.8001 21.0669 19.6168L27.3336 16.2334C27.7836 15.9834 28.0669 15.5001 28.0669 14.9501C28.0669 14.4168 27.7836 13.9334 27.3336 13.6834Z" fill="#8E99A7"/>
<path d="M17.9 20.7832L12.0667 17.8666C11.6167 17.6499 11.1 17.6666 10.6667 17.9332C10.25 18.1999 10 18.6499 10 19.1499V24.6666C10 25.6165 10.5333 26.4832 11.3833 26.8999L17.2167 29.8165C17.4167 29.9165 17.6333 29.9665 17.8667 29.9665C18.1333 29.9665 18.3833 29.8999 18.6167 29.7499C19.05 29.4832 19.3 29.0332 19.3 28.5332V23.0166C19.2833 22.0666 18.7667 21.2165 17.9 20.7832Z" fill="#8E99A7"/>
<path d="M29.3169 17.9332C28.8835 17.6666 28.3669 17.6499 27.9169 17.8666L22.0835 20.7832C21.2335 21.2165 20.7002 22.0666 20.7002 23.0166V28.5332C20.7002 29.0332 20.9502 29.4832 21.3835 29.7499C21.6169 29.8999 21.8669 29.9665 22.1335 29.9665C22.3502 29.9665 22.5669 29.9165 22.7835 29.8165L28.6169 26.8999C29.4669 26.4665 30.0002 25.6165 30.0002 24.6666V19.1499C30.0002 18.6499 29.7502 18.1999 29.3169 17.9332Z" fill="#8E99A7"/>
</svg>
