<svg width="40" height="40" viewBox="0 0 40 40" fill="none" xmlns="http://www.w3.org/2000/svg">
<path d="M36.6663 36.6667H3.33301C2.64967 36.6667 2.08301 36.1001 2.08301 35.4167C2.08301 34.7334 2.64967 34.1667 3.33301 34.1667H36.6663C37.3497 34.1667 37.9163 34.7334 37.9163 35.4167C37.9163 36.1001 37.3497 36.6667 36.6663 36.6667Z" fill="#8E99A7"/>
<path d="M16.25 6.66659V36.6666H23.75V6.66659C23.75 4.83325 23 3.33325 20.75 3.33325H19.25C17 3.33325 16.25 4.83325 16.25 6.66659Z" fill="#8E99A7"/>
<path d="M5 16.6666V36.6666H11.6667V16.6666C11.6667 14.8333 11 13.3333 9 13.3333H7.66667C5.66667 13.3333 5 14.8333 5 16.6666Z" fill="#8E99A7"/>
<path d="M28.333 25.0001V36.6667H34.9997V25.0001C34.9997 23.1667 34.333 21.6667 32.333 21.6667H30.9997C28.9997 21.6667 28.333 23.1667 28.333 25.0001Z" fill="#8E99A7"/>
</svg>
