<svg width="40" height="40" viewBox="0 0 40 40" fill="none" xmlns="http://www.w3.org/2000/svg">
<path d="M14.9997 3.33325C10.633 3.33325 7.08301 6.88325 7.08301 11.2499C7.08301 15.5333 10.433 18.9999 14.7997 19.1499C14.933 19.1333 15.0663 19.1333 15.1663 19.1499C15.1997 19.1499 15.2163 19.1499 15.2497 19.1499C15.2663 19.1499 15.2663 19.1499 15.283 19.1499C19.5497 18.9999 22.8997 15.5333 22.9163 11.2499C22.9163 6.88325 19.3663 3.33325 14.9997 3.33325Z" fill="#8E99A7"/>
<path d="M23.4666 23.5833C18.8166 20.4833 11.2333 20.4833 6.54994 23.5833C4.43327 25 3.2666 26.9166 3.2666 28.9666C3.2666 31.0166 4.43327 32.9166 6.53327 34.3166C8.8666 35.8833 11.9333 36.6666 14.9999 36.6666C18.0666 36.6666 21.1333 35.8833 23.4666 34.3166C25.5666 32.9 26.7333 31 26.7333 28.9333C26.7166 26.8833 25.5666 24.9833 23.4666 23.5833Z" fill="#8E99A7"/>
<path d="M33.3166 12.2334C33.5833 15.4668 31.2833 18.3001 28.0999 18.6834C28.0833 18.6834 28.0833 18.6834 28.0666 18.6834H28.0166C27.9166 18.6834 27.8166 18.6834 27.7333 18.7168C26.1166 18.8001 24.6333 18.2834 23.5166 17.3334C25.2333 15.8001 26.2166 13.5001 26.0166 11.0001C25.8999 9.65008 25.4333 8.41675 24.7333 7.36675C25.3666 7.05008 26.0999 6.85009 26.8499 6.78342C30.1166 6.50009 33.0333 8.93342 33.3166 12.2334Z" fill="#8E99A7"/>
<path d="M36.6497 27.6501C36.5164 29.2668 35.4831 30.6668 33.7497 31.6168C32.0831 32.5334 29.9831 32.9668 27.8997 32.9168C29.0997 31.8334 29.7997 30.4834 29.9331 29.0501C30.0997 26.9834 29.1164 25.0001 27.1497 23.4168C26.0331 22.5334 24.7331 21.8334 23.3164 21.3168C26.9997 20.2501 31.6331 20.9668 34.4831 23.2668C36.0164 24.5001 36.7997 26.0501 36.6497 27.6501Z" fill="#8E99A7"/>
</svg>
