<svg width="40" height="40" viewBox="0 0 40 40" fill="none" xmlns="http://www.w3.org/2000/svg">
<path d="M11.6668 3.33325H10.0002C5.00016 3.33325 3.3335 6.31659 3.3335 9.99992V11.6666V34.9999C3.3335 36.3833 4.90016 37.1666 6.00016 36.3333L8.85016 34.1999C9.51683 33.6999 10.4502 33.7666 11.0502 34.3666L13.8168 37.1499C14.4668 37.7999 15.5335 37.7999 16.1835 37.1499L18.9835 34.3499C19.5668 33.7666 20.5002 33.6999 21.1502 34.1999L24.0002 36.3333C25.1002 37.1499 26.6668 36.3666 26.6668 34.9999V6.66659C26.6668 4.83325 28.1668 3.33325 30.0002 3.33325H11.6668ZM9.95016 23.3499C9.0335 23.3499 8.2835 22.5999 8.2835 21.6833C8.2835 20.7666 9.0335 20.0166 9.95016 20.0166C10.8668 20.0166 11.6168 20.7666 11.6168 21.6833C11.6168 22.5999 10.8668 23.3499 9.95016 23.3499ZM9.95016 16.6833C9.0335 16.6833 8.2835 15.9333 8.2835 15.0166C8.2835 14.0999 9.0335 13.3499 9.95016 13.3499C10.8668 13.3499 11.6168 14.0999 11.6168 15.0166C11.6168 15.9333 10.8668 16.6833 9.95016 16.6833ZM20.0002 22.9333H15.0002C14.3168 22.9333 13.7502 22.3666 13.7502 21.6833C13.7502 20.9999 14.3168 20.4333 15.0002 20.4333H20.0002C20.6835 20.4333 21.2502 20.9999 21.2502 21.6833C21.2502 22.3666 20.6835 22.9333 20.0002 22.9333ZM20.0002 16.2666H15.0002C14.3168 16.2666 13.7502 15.6999 13.7502 15.0166C13.7502 14.3333 14.3168 13.7666 15.0002 13.7666H20.0002C20.6835 13.7666 21.2502 14.3333 21.2502 15.0166C21.2502 15.6999 20.6835 16.2666 20.0002 16.2666Z" fill="#8E99A7"/>
<path d="M30.0165 3.33325V5.83325C31.1165 5.83325 32.1665 6.28325 32.9332 7.03325C33.7332 7.84992 34.1665 8.89992 34.1665 9.99992V14.0333C34.1665 15.2666 33.6165 15.8333 32.3665 15.8333H29.1665V6.68325C29.1665 6.21659 29.5498 5.83325 30.0165 5.83325V3.33325ZM30.0165 3.33325C28.1665 3.33325 26.6665 4.83325 26.6665 6.68325V18.3333H32.3665C34.9998 18.3333 36.6665 16.6666 36.6665 14.0333V9.99992C36.6665 8.16659 35.9165 6.49992 34.7165 5.28325C33.4998 4.08325 31.8498 3.34992 30.0165 3.33325C30.0332 3.33325 30.0165 3.33325 30.0165 3.33325Z" fill="#8E99A7"/>
</svg>
