<svg width="40" height="40" viewBox="0 0 40 40" fill="none" xmlns="http://www.w3.org/2000/svg">
<path d="M30.017 3.33325V5.83325C31.117 5.83325 32.167 6.28325 32.9337 7.03325C33.7337 7.84992 34.167 8.89992 34.167 9.99992V14.0333C34.167 15.2666 33.617 15.8333 32.367 15.8333H29.167V6.68325C29.167 6.21659 29.5503 5.83325 30.017 5.83325V3.33325ZM30.017 3.33325C28.167 3.33325 26.667 4.83325 26.667 6.68325V18.3333H32.367C35.0003 18.3333 36.667 16.6666 36.667 14.0333V9.99992C36.667 8.16659 35.917 6.49992 34.717 5.28325C33.5003 4.08325 31.8503 3.34992 30.017 3.33325C30.0337 3.33325 30.017 3.33325 30.017 3.33325Z" fill="#8E99A7"/>
<path d="M11.6663 3.33325H9.99967C4.99967 3.33325 3.33301 6.31659 3.33301 9.99992V11.6666V34.9999C3.33301 36.3833 4.89967 37.1666 5.99967 36.3333L8.84967 34.1999C9.51634 33.6999 10.4497 33.7666 11.0497 34.3666L13.8163 37.1499C14.4663 37.7999 15.533 37.7999 16.183 37.1499L18.983 34.3499C19.5663 33.7666 20.4997 33.6999 21.1497 34.1999L23.9997 36.3333C25.0997 37.1499 26.6663 36.3666 26.6663 34.9999V6.66659C26.6663 4.83325 28.1663 3.33325 29.9997 3.33325H11.6663ZM19.583 17.9166H16.2497V21.2499C16.2497 21.9333 15.683 22.4999 14.9997 22.4999C14.3163 22.4999 13.7497 21.9333 13.7497 21.2499V17.9166H10.4163C9.73301 17.9166 9.16634 17.3499 9.16634 16.6666C9.16634 15.9833 9.73301 15.4166 10.4163 15.4166H13.7497V12.0833C13.7497 11.3999 14.3163 10.8333 14.9997 10.8333C15.683 10.8333 16.2497 11.3999 16.2497 12.0833V15.4166H19.583C20.2663 15.4166 20.833 15.9833 20.833 16.6666C20.833 17.3499 20.2663 17.9166 19.583 17.9166Z" fill="#8E99A7"/>
</svg>
