<svg width="40" height="40" viewBox="0 0 40 40" fill="none" xmlns="http://www.w3.org/2000/svg">
<path d="M26.9835 3.33325H13.0168C6.95016 3.33325 3.3335 6.94992 3.3335 13.0166V26.9833C3.3335 33.0499 6.95016 36.6666 13.0168 36.6666H26.9835C33.0502 36.6666 36.6668 33.0499 36.6668 26.9833V13.0166C36.6668 6.94992 33.0502 3.33325 26.9835 3.33325ZM16.6168 24.8333L12.8668 28.5833C12.6168 28.8333 12.3002 28.9499 11.9835 28.9499C11.6668 28.9499 11.3335 28.8333 11.1002 28.5833L9.85016 27.3333C9.35016 26.8499 9.35016 26.0499 9.85016 25.5666C10.3335 25.0833 11.1168 25.0833 11.6168 25.5666L11.9835 25.9333L14.8502 23.0666C15.3335 22.5833 16.1168 22.5833 16.6168 23.0666C17.1002 23.5499 17.1002 24.3499 16.6168 24.8333ZM16.6168 13.1666L12.8668 16.9166C12.6168 17.1666 12.3002 17.2833 11.9835 17.2833C11.6668 17.2833 11.3335 17.1666 11.1002 16.9166L9.85016 15.6666C9.35016 15.1833 9.35016 14.3833 9.85016 13.8999C10.3335 13.4166 11.1168 13.4166 11.6168 13.8999L11.9835 14.2666L14.8502 11.3999C15.3335 10.9166 16.1168 10.9166 16.6168 11.3999C17.1002 11.8833 17.1002 12.6833 16.6168 13.1666ZM29.2668 27.6999H20.5168C19.8335 27.6999 19.2668 27.1333 19.2668 26.4499C19.2668 25.7666 19.8335 25.1999 20.5168 25.1999H29.2668C29.9668 25.1999 30.5168 25.7666 30.5168 26.4499C30.5168 27.1333 29.9668 27.6999 29.2668 27.6999ZM29.2668 16.0333H20.5168C19.8335 16.0333 19.2668 15.4666 19.2668 14.7833C19.2668 14.0999 19.8335 13.5333 20.5168 13.5333H29.2668C29.9668 13.5333 30.5168 14.0999 30.5168 14.7833C30.5168 15.4666 29.9668 16.0333 29.2668 16.0333Z" fill="#8E99A7"/>
</svg>
