<?xml version="1.0" encoding="utf-8"?>
<!-- Generator: Adobe Illustrator 23.0.3, SVG Export Plug-In . SVG Version: 6.00 Build 0)  -->
<svg version="1.1" id="Layer_1" xmlns="http://www.w3.org/2000/svg" xmlns:xlink="http://www.w3.org/1999/xlink" x="0px" y="0px"
	 viewBox="0 0 216 50.5" style="enable-background:new 0 0 216 50.5;" xml:space="preserve">
<style type="text/css">
	.st0{fill:#FFFFFF;}
</style>
<g>
	<g>
		<g>
			<path class="st0" d="M171.1,37.5c0,0.3,0.3,0.6,0.6,0.6h4.9c0.3,0,0.6-0.3,0.6-0.6V17.3c0-0.3-0.3-0.6-0.6-0.6h-4.9
				c-0.3,0-0.6,0.3-0.6,0.6V37.5z"/>
			<path class="st0" d="M141.7,37.4c4.9,0.7,8.8,1,12.1,1c8.2,0,11.8-2.1,11.8-6.8c0-5.8-3.8-6.3-11.1-6.8c-7.1-0.4-8.4-0.5-8.4-3.1
				c0-1.9,1.1-3,6.5-3c2.7,0,6.4,0.3,11.3,0.9c0.2,0,0.3-0.1,0.3-0.3l0.1-1.6c0-0.1-0.1-0.3-0.2-0.3c-4.8-0.7-9-1-12.3-1
				c-11.7,0-11.7,4.2-11.7,6.2c0,6.5,6.3,6.8,11.9,7c4.2,0.2,7.8,0.3,7.8,3.2c0,2.3-1.9,3.3-6.8,3.3c-2.7,0-6.3-0.3-11.2-0.9
				c-0.2,0-0.3,0.1-0.3,0.3l-0.1,1.6C141.4,37.3,141.6,37.4,141.7,37.4z"/>
			<path class="st0" d="M208.2,31.6c0-5.8-3.8-6.3-11.1-6.8l0,0l0,0l0,0c-7.1-0.4-8.4-0.5-8.4-3.1c0-1.9,1.1-3,6.5-3
				c2.7,0,6.5,0.3,11.3,0.9c0.2,0,0.3-0.1,0.3-0.3l0.1-1.7c0-0.1-0.1-0.3-0.2-0.3c-4.8-0.7-9-1-12.3-1c0,0,0,0,0,0
				c-4.9,0-8.2,0.7-10,2.1c-1.5,1.2-1.7,2.7-1.7,4.1c0,6.5,6.3,6.8,11.9,7c4.2,0.2,7.8,0.3,7.8,3.2c0,2.3-1.9,3.3-6.8,3.3
				c-2.7,0-6.3-0.3-11.2-0.9c-0.2,0-0.3,0.1-0.3,0.3l-0.1,1.7c0,0.1,0.1,0.3,0.2,0.3c4.9,0.7,8.8,1,12.1,1
				C204.6,38.4,208.2,36.3,208.2,31.6z"/>
			<path class="st0" d="M128.3,37.5c0,0.3,0.3,0.6,0.6,0.6h4.9c0.3,0,0.6-0.3,0.6-0.6V17.3c0-0.3-0.3-0.6-0.6-0.6h-4.9
				c-0.3,0-0.6,0.3-0.6,0.6V37.5z"/>
			<g>
				<path class="st0" d="M81.9,23.4c0-3.1-1.4-4.4-8.9-4.4h-6v18.5c0,0.3-0.3,0.6-0.6,0.6h-5.2c-0.3,0-0.6-0.3-0.6-0.6V17.3
					c0-0.4,0.3-0.6,0.6-0.6h12.1c10.7,0,15.1,1.6,15.1,6.6c0,2.9-1.6,5-4.9,5.9L83,29.2l25.2,16.3L68.8,28.2H72
					C78.4,28.2,81.9,27.6,81.9,23.4z"/>
			</g>
			<path class="st0" d="M124.3,37.8c-0.1,0.2-0.3,0.3-0.6,0.3h-5.9c-0.2,0-0.5-0.1-0.6-0.4l-9.4-18.2c-0.2-0.4-0.6-0.6-1-0.6h-1.6
				c-0.4,0-0.8,0.2-1,0.6L97,33.3c-0.2,0.3-0.6,0.4-0.9,0.2l-2-1.3c-0.3-0.2-0.4-0.5-0.2-0.8l7.5-14c0.3-0.5,0.8-0.8,1.4-0.8h9.2
				c0.6,0,1.1,0.3,1.4,0.8l10.8,19.7C124.4,37.4,124.4,37.6,124.3,37.8z"/>
		</g>
		<g>
			<g>
				<path class="st0" d="M122.8,48.9c0,1.2-0.9,1.5-3,1.5c-0.4,0-0.7,0-1,0c-0.3,0-0.6,0-0.8-0.1h0c-0.1,0-0.2,0-0.3,0
					c-0.1,0-0.3,0-0.4-0.1c-0.1,0-0.1-0.1-0.1-0.1l0-0.4c0-0.1,0.1-0.1,0.2-0.1c0.1,0,0.1,0,0.2,0c0,0,0.1,0,0.1,0
					c0.4,0.1,1.2,0.2,2.1,0.2c1,0,1.8,0,1.8-0.7c0-0.6-0.4-0.6-1.4-0.7l-0.4,0c-1.6-0.1-2.5-0.3-2.5-1.6c0-1.3,1.4-1.4,2.8-1.4
					c0.8,0,1.7,0.1,2.1,0.1v0c0,0,0,0,0,0c0,0,0,0,0,0c0.1,0,0.2,0,0.3,0c0.1,0,0.1,0.1,0.1,0.1l0,0.4c0,0.1-0.1,0.1-0.2,0.1
					c-0.5-0.1-1-0.1-1.4-0.1c-0.3,0-0.6,0-0.9,0c-1,0-1.6,0-1.6,0.6c0,0.6,0.4,0.6,1.5,0.7l0.4,0C121.9,47.4,122.8,47.5,122.8,48.9z
					"/>
				<path class="st0" d="M131.8,45.4c-2.9,0-3.5,1-3.5,2.5c0,1.5,0.5,2.5,3.5,2.5c2.9,0,3.4-1,3.4-2.5
					C135.3,46.4,134.7,45.4,131.8,45.4z M131.8,49.9c-1.9,0-2.1-0.8-2.1-2c0-1.2,0.2-2,2.1-2s2.1,0.8,2.1,2
					C133.9,49.1,133.7,49.9,131.8,49.9z"/>
				<path class="st0" d="M173.3,45.7l-1.2,4.5c0,0.1-0.1,0.1-0.2,0.1h-2.2c-0.1,0-0.2-0.1-0.2-0.1l-1-4c0-0.1-0.1-0.1-0.2-0.1h-0.3
					c-0.1,0-0.2,0.1-0.2,0.1l-1,4c0,0.1-0.1,0.1-0.2,0.1h-2.2c-0.1,0-0.2-0.1-0.2-0.1l-1.2-4.5c0-0.1,0.1-0.2,0.2-0.2h0.9
					c0.1,0,0.2,0.1,0.2,0.1l1.1,4c0,0.1,0.1,0.1,0.2,0.1h0.3c0.1,0,0.2-0.1,0.2-0.1l1-4c0-0.1,0.1-0.1,0.2-0.1h2.2
					c0.1,0,0.2,0.1,0.2,0.1l1,4c0,0.1,0.1,0.1,0.2,0.1h0.4c0.1,0,0.2-0.1,0.2-0.1l1-4c0-0.1,0.1-0.1,0.2-0.1h0.5
					C173.3,45.5,173.4,45.6,173.3,45.7z"/>
				<path class="st0" d="M185.3,50.1l-2.4-4.5c0-0.1-0.1-0.1-0.2-0.1h-2c-0.1,0-0.1,0-0.2,0.1l-2.4,4.5c-0.1,0.1,0,0.3,0.2,0.3h0.5
					c0.1,0,0.1,0,0.2-0.1l0.6-1.2h3.6l0.7,1.2c0,0.1,0.1,0.1,0.2,0.1h1C185.3,50.3,185.4,50.2,185.3,50.1z M179.9,48.4l1.2-2.4h0.6
					l1.2,2.4H179.9z"/>
				<path class="st0" d="M196.8,49.1c0-0.7-0.7-0.9-1.3-1c-0.1,0-0.2-0.1-0.2-0.2s0-0.1,0.1-0.2c0.7-0.2,1.2-0.3,1.2-1.2
					c0-0.9-0.8-1.2-2.1-1.2H191c-0.1,0-0.2,0.1-0.2,0.2v4.5c0,0.1,0.1,0.2,0.2,0.2h0.9c0.1,0,0.2-0.1,0.2-0.2v-1.8h1.9
					c1,0,1.5,0.2,1.5,0.9l0,0.8c0,0.1,0.1,0.2,0.2,0.2h0.9c0.1,0,0.2-0.1,0.2-0.2L196.8,49.1z M194,47.8h-1.9v-1.7h2
					c0.8,0,1.3,0.1,1.3,0.9C195.4,47.7,194.8,47.8,194,47.8z"/>
			</g>
			<path class="st0" d="M157.8,45.6V46c0,0.1-0.1,0.1-0.1,0.1h-2.4v4c0,0.1-0.1,0.2-0.2,0.2h-0.9c-0.1,0-0.2-0.1-0.2-0.2v-4h-2.4
				c-0.1,0-0.1-0.1-0.1-0.1v-0.3c0-0.1,0.1-0.1,0.1-0.1h6.2C157.8,45.5,157.8,45.6,157.8,45.6z"/>
			<path class="st0" d="M142.4,46.1v1.6h2.8c0.1,0,0.1,0.1,0.1,0.1v0.3c0,0.1-0.1,0.1-0.1,0.1h-2.8v1.8c0,0.1-0.1,0.2-0.2,0.2h-0.9
				c-0.1,0-0.2-0.1-0.2-0.2v-4.5c0-0.1,0.1-0.2,0.2-0.2h4.9c0.1,0,0.1,0.1,0.1,0.1V46c0,0.1-0.1,0.1-0.1,0.1H142.4z"/>
			<path class="st0" d="M208.2,49.9v0.3c0,0.1-0.1,0.1-0.1,0.1H203c-0.1,0-0.2-0.1-0.2-0.2v-4.5c0-0.1,0.1-0.2,0.2-0.2h4.9
				c0.1,0,0.1,0.1,0.1,0.1V46c0,0.1-0.1,0.1-0.1,0.1H204v1.4h2.9c0.1,0,0.1,0.1,0.1,0.1V48c0,0.1-0.1,0.1-0.1,0.1H204v1.6h4
				C208.1,49.7,208.2,49.8,208.2,49.9z"/>
		</g>
		<path class="st0" d="M214.6,18.9c0.2-0.1,0.2-0.3,0.2-0.5c0-0.6-0.5-0.8-1.5-0.8h-0.7c-0.2,0-0.3,0.1-0.3,0.2v2.2h0.5V18
			c0-0.1,0-0.1,0.1-0.1h0.4c0.4,0,0.7,0,0.8,0.1c0.1,0.1,0.2,0.2,0.2,0.4c0,0.2-0.1,0.3-0.2,0.4c-0.2,0.1-0.5,0.1-0.9,0.1
			c-0.1,0-0.2,0.1-0.1,0.2l1,1h0.7l-1.1-1C214.2,19.1,214.5,19,214.6,18.9z M214.6,18.9c0.2-0.1,0.2-0.3,0.2-0.5
			c0-0.6-0.5-0.8-1.5-0.8h-0.7c-0.2,0-0.3,0.1-0.3,0.2v2.2h0.5V18c0-0.1,0-0.1,0.1-0.1h0.4c0.4,0,0.7,0,0.8,0.1
			c0.1,0.1,0.2,0.2,0.2,0.4c0,0.2-0.1,0.3-0.2,0.4c-0.2,0.1-0.5,0.1-0.9,0.1c-0.1,0-0.2,0.1-0.1,0.2l1,1h0.7l-1.1-1
			C214.2,19.1,214.5,19,214.6,18.9z M214.6,18.9c0.2-0.1,0.2-0.3,0.2-0.5c0-0.6-0.5-0.8-1.5-0.8h-0.7c-0.2,0-0.3,0.1-0.3,0.2v2.2
			h0.5V18c0-0.1,0-0.1,0.1-0.1h0.4c0.4,0,0.7,0,0.8,0.1c0.1,0.1,0.2,0.2,0.2,0.4c0,0.2-0.1,0.3-0.2,0.4c-0.2,0.1-0.5,0.1-0.9,0.1
			c-0.1,0-0.2,0.1-0.1,0.2l1,1h0.7l-1.1-1C214.2,19.1,214.5,19,214.6,18.9z M214.6,18.9c0.2-0.1,0.2-0.3,0.2-0.5
			c0-0.6-0.5-0.8-1.5-0.8h-0.7c-0.2,0-0.3,0.1-0.3,0.2v2.2h0.5V18c0-0.1,0-0.1,0.1-0.1h0.4c0.4,0,0.7,0,0.8,0.1
			c0.1,0.1,0.2,0.2,0.2,0.4c0,0.2-0.1,0.3-0.2,0.4c-0.2,0.1-0.5,0.1-0.9,0.1c-0.1,0-0.2,0.1-0.1,0.2l1,1h0.7l-1.1-1
			C214.2,19.1,214.5,19,214.6,18.9z M214.6,18.9c0.2-0.1,0.2-0.3,0.2-0.5c0-0.6-0.5-0.8-1.5-0.8h-0.7c-0.2,0-0.3,0.1-0.3,0.2v2.2
			h0.5V18c0-0.1,0-0.1,0.1-0.1h0.4c0.4,0,0.7,0,0.8,0.1c0.1,0.1,0.2,0.2,0.2,0.4c0,0.2-0.1,0.3-0.2,0.4c-0.2,0.1-0.5,0.1-0.9,0.1
			c-0.1,0-0.2,0.1-0.1,0.2l1,1h0.7l-1.1-1C214.2,19.1,214.5,19,214.6,18.9z M214.6,18.9c0.2-0.1,0.2-0.3,0.2-0.5
			c0-0.6-0.5-0.8-1.5-0.8h-0.7c-0.2,0-0.3,0.1-0.3,0.2v2.2h0.5V18c0-0.1,0-0.1,0.1-0.1h0.4c0.4,0,0.7,0,0.8,0.1
			c0.1,0.1,0.2,0.2,0.2,0.4c0,0.2-0.1,0.3-0.2,0.4c-0.2,0.1-0.5,0.1-0.9,0.1c-0.1,0-0.2,0.1-0.1,0.2l1,1h0.7l-1.1-1
			C214.2,19.1,214.5,19,214.6,18.9z M214.6,18.9c0.2-0.1,0.2-0.3,0.2-0.5c0-0.6-0.5-0.8-1.5-0.8h-0.7c-0.2,0-0.3,0.1-0.3,0.2v2.2
			h0.5V18c0-0.1,0-0.1,0.1-0.1h0.4c0.4,0,0.7,0,0.8,0.1c0.1,0.1,0.2,0.2,0.2,0.4c0,0.2-0.1,0.3-0.2,0.4c-0.2,0.1-0.5,0.1-0.9,0.1
			c-0.1,0-0.2,0.1-0.1,0.2l1,1h0.7l-1.1-1C214.2,19.1,214.5,19,214.6,18.9z M214.6,18.9c0.2-0.1,0.2-0.3,0.2-0.5
			c0-0.6-0.5-0.8-1.5-0.8h-0.7c-0.2,0-0.3,0.1-0.3,0.2v2.2h0.5V18c0-0.1,0-0.1,0.1-0.1h0.4c0.4,0,0.7,0,0.8,0.1
			c0.1,0.1,0.2,0.2,0.2,0.4c0,0.2-0.1,0.3-0.2,0.4c-0.2,0.1-0.5,0.1-0.9,0.1c-0.1,0-0.2,0.1-0.1,0.2l1,1h0.7l-1.1-1
			C214.2,19.1,214.5,19,214.6,18.9z M213.5,16.7c-1.6,0-2.5,0.7-2.5,2.2c0,1.5,0.8,2.2,2.5,2.2c1.7,0,2.5-0.6,2.5-2.2
			C216,17.4,215.2,16.7,213.5,16.7z M215,20.3c-0.3,0.3-0.8,0.4-1.5,0.4c-0.7,0-1.2-0.2-1.5-0.4c-0.3-0.3-0.4-0.8-0.4-1.5
			c0-0.7,0.1-1.1,0.4-1.4c0.3-0.3,0.8-0.5,1.5-0.5c1.3,0,1.9,0.6,1.9,1.9C215.4,19.6,215.3,20,215,20.3z M214.9,18.4
			c0-0.6-0.5-0.8-1.5-0.8h-0.7c-0.2,0-0.3,0.1-0.3,0.2v2.2h0.5V18c0-0.1,0-0.1,0.1-0.1h0.4c0.4,0,0.7,0,0.8,0.1
			c0.1,0.1,0.2,0.2,0.2,0.4c0,0.2-0.1,0.3-0.2,0.4c-0.2,0.1-0.5,0.1-0.9,0.1c-0.1,0-0.2,0.1-0.1,0.2l1,1h0.7l-1.1-1
			c0.4,0,0.7-0.1,0.9-0.2C214.8,18.8,214.9,18.6,214.9,18.4z M214.6,18.9c0.2-0.1,0.2-0.3,0.2-0.5c0-0.6-0.5-0.8-1.5-0.8h-0.7
			c-0.2,0-0.3,0.1-0.3,0.2v2.2h0.5V18c0-0.1,0-0.1,0.1-0.1h0.4c0.4,0,0.7,0,0.8,0.1c0.1,0.1,0.2,0.2,0.2,0.4c0,0.2-0.1,0.3-0.2,0.4
			c-0.2,0.1-0.5,0.1-0.9,0.1c-0.1,0-0.2,0.1-0.1,0.2l1,1h0.7l-1.1-1C214.2,19.1,214.5,19,214.6,18.9z M214.6,18.9
			c0.2-0.1,0.2-0.3,0.2-0.5c0-0.6-0.5-0.8-1.5-0.8h-0.7c-0.2,0-0.3,0.1-0.3,0.2v2.2h0.5V18c0-0.1,0-0.1,0.1-0.1h0.4
			c0.4,0,0.7,0,0.8,0.1c0.1,0.1,0.2,0.2,0.2,0.4c0,0.2-0.1,0.3-0.2,0.4c-0.2,0.1-0.5,0.1-0.9,0.1c-0.1,0-0.2,0.1-0.1,0.2l1,1h0.7
			l-1.1-1C214.2,19.1,214.5,19,214.6,18.9z M214.6,18.9c0.2-0.1,0.2-0.3,0.2-0.5c0-0.6-0.5-0.8-1.5-0.8h-0.7c-0.2,0-0.3,0.1-0.3,0.2
			v2.2h0.5V18c0-0.1,0-0.1,0.1-0.1h0.4c0.4,0,0.7,0,0.8,0.1c0.1,0.1,0.2,0.2,0.2,0.4c0,0.2-0.1,0.3-0.2,0.4
			c-0.2,0.1-0.5,0.1-0.9,0.1c-0.1,0-0.2,0.1-0.1,0.2l1,1h0.7l-1.1-1C214.2,19.1,214.5,19,214.6,18.9z M214.6,18.9
			c0.2-0.1,0.2-0.3,0.2-0.5c0-0.6-0.5-0.8-1.5-0.8h-0.7c-0.2,0-0.3,0.1-0.3,0.2v2.2h0.5V18c0-0.1,0-0.1,0.1-0.1h0.4
			c0.4,0,0.7,0,0.8,0.1c0.1,0.1,0.2,0.2,0.2,0.4c0,0.2-0.1,0.3-0.2,0.4c-0.2,0.1-0.5,0.1-0.9,0.1c-0.1,0-0.2,0.1-0.1,0.2l1,1h0.7
			l-1.1-1C214.2,19.1,214.5,19,214.6,18.9z M214.6,18.9c0.2-0.1,0.2-0.3,0.2-0.5c0-0.6-0.5-0.8-1.5-0.8h-0.7c-0.2,0-0.3,0.1-0.3,0.2
			v2.2h0.5V18c0-0.1,0-0.1,0.1-0.1h0.4c0.4,0,0.7,0,0.8,0.1c0.1,0.1,0.2,0.2,0.2,0.4c0,0.2-0.1,0.3-0.2,0.4
			c-0.2,0.1-0.5,0.1-0.9,0.1c-0.1,0-0.2,0.1-0.1,0.2l1,1h0.7l-1.1-1C214.2,19.1,214.5,19,214.6,18.9z M214.6,18.9
			c0.2-0.1,0.2-0.3,0.2-0.5c0-0.6-0.5-0.8-1.5-0.8h-0.7c-0.2,0-0.3,0.1-0.3,0.2v2.2h0.5V18c0-0.1,0-0.1,0.1-0.1h0.4
			c0.4,0,0.7,0,0.8,0.1c0.1,0.1,0.2,0.2,0.2,0.4c0,0.2-0.1,0.3-0.2,0.4c-0.2,0.1-0.5,0.1-0.9,0.1c-0.1,0-0.2,0.1-0.1,0.2l1,1h0.7
			l-1.1-1C214.2,19.1,214.5,19,214.6,18.9z"/>
	</g>
	<g>
		<path class="st0" d="M59,48.1c-16.5-10.3-30.1-11-40.1-8.7C30.7,23,45.2,14.5,53.6,11.6c-13.9,6.9-23.1,21.8-23.1,21.8
			C46.6,35.4,56.6,45.9,59,48.1z"/>
		<path class="st0" d="M9.1,31.7L0,49.4c0.4-0.4,5.1-5.3,13.6-8.5C28.7,17.9,50.9,7.6,56,5.7C43.1,9.5,25.2,17.2,9.1,31.7z"/>
		<path class="st0" d="M19.5,11.6L19.5,11.6L13.1,24C33.6,8,52.8,2.6,64.1,0C41,2.6,27.8,7.6,19.5,11.6z"/>
	</g>
</g>
</svg>
