<svg width="48" height="48" viewBox="0 0 48 48" fill="none" xmlns="http://www.w3.org/2000/svg">
<path d="M18 4C12.76 4 8.5 8.26 8.5 13.5C8.5 18.64 12.52 22.8 17.76 22.98C17.92 22.96 18.08 22.96 18.2 22.98C18.24 22.98 18.26 22.98 18.3 22.98C18.32 22.98 18.32 22.98 18.34 22.98C23.46 22.8 27.48 18.64 27.5 13.5C27.5 8.26 23.24 4 18 4Z" fill="#CED1DC"/>
<path d="M28.1599 28.3C22.5799 24.58 13.4799 24.58 7.85992 28.3C5.31992 30 3.91992 32.3 3.91992 34.76C3.91992 37.22 5.31992 39.5 7.83992 41.18C10.6399 43.06 14.3199 44 17.9999 44C21.6799 44 25.3599 43.06 28.1599 41.18C30.6799 39.48 32.0799 37.2 32.0799 34.72C32.0599 32.26 30.6799 29.98 28.1599 28.3Z" fill="#CED1DC"/>
<path d="M39.9802 14.68C40.3002 18.56 37.5402 21.96 33.7202 22.42C33.7002 22.42 33.7002 22.42 33.6802 22.42H33.6202C33.5002 22.42 33.3802 22.42 33.2802 22.46C31.3402 22.56 29.5602 21.94 28.2202 20.8C30.2802 18.96 31.4602 16.2 31.2202 13.2C31.0802 11.58 30.5202 10.1 29.6802 8.84002C30.4402 8.46002 31.3202 8.22002 32.2202 8.14002C36.1402 7.80002 39.6402 10.72 39.9802 14.68Z" fill="#CED1DC"/>
<path d="M43.98 33.18C43.82 35.12 42.58 36.8 40.5 37.94C38.5 39.04 35.98 39.56 33.48 39.5C34.92 38.2 35.76 36.58 35.92 34.86C36.12 32.38 34.94 30 32.58 28.1C31.24 27.04 29.68 26.2 27.98 25.58C32.4 24.3 37.96 25.16 41.38 27.92C43.22 29.4 44.16 31.26 43.98 33.18Z" fill="#CED1DC"/>
</svg>
