<svg width="48" height="48" viewBox="0 0 48 48" fill="none" xmlns="http://www.w3.org/2000/svg">
<path d="M44 44H4C3.18 44 2.5 43.32 2.5 42.5C2.5 41.68 3.18 41 4 41H44C44.82 41 45.5 41.68 45.5 42.5C45.5 43.32 44.82 44 44 44Z" fill="#CED1DC"/>
<path d="M19.5 8V44H28.5V8C28.5 5.8 27.6 4 24.9 4H23.1C20.4 4 19.5 5.8 19.5 8Z" fill="#CED1DC"/>
<path d="M6 20V44H14V20C14 17.8 13.2 16 10.8 16H9.2C6.8 16 6 17.8 6 20Z" fill="#CED1DC"/>
<path d="M34 30V44H42V30C42 27.8 41.2 26 38.8 26H37.2C34.8 26 34 27.8 34 30Z" fill="#CED1DC"/>
</svg>
