<svg width="48" height="48" viewBox="0 0 48 48" fill="none" xmlns="http://www.w3.org/2000/svg">
<path d="M14 4H12C6 4 4 7.58 4 12V14V42C4 43.66 5.88 44.6 7.2 43.6L10.62 41.04C11.42 40.44 12.54 40.52 13.26 41.24L16.58 44.58C17.36 45.36 18.64 45.36 19.42 44.58L22.78 41.22C23.48 40.52 24.6 40.44 25.38 41.04L28.8 43.6C30.12 44.58 32 43.64 32 42V8C32 5.8 33.8 4 36 4H14ZM11.94 28.02C10.84 28.02 9.94 27.12 9.94 26.02C9.94 24.92 10.84 24.02 11.94 24.02C13.04 24.02 13.94 24.92 13.94 26.02C13.94 27.12 13.04 28.02 11.94 28.02ZM11.94 20.02C10.84 20.02 9.94 19.12 9.94 18.02C9.94 16.92 10.84 16.02 11.94 16.02C13.04 16.02 13.94 16.92 13.94 18.02C13.94 19.12 13.04 20.02 11.94 20.02ZM24 27.52H18C17.18 27.52 16.5 26.84 16.5 26.02C16.5 25.2 17.18 24.52 18 24.52H24C24.82 24.52 25.5 25.2 25.5 26.02C25.5 26.84 24.82 27.52 24 27.52ZM24 19.52H18C17.18 19.52 16.5 18.84 16.5 18.02C16.5 17.2 17.18 16.52 18 16.52H24C24.82 16.52 25.5 17.2 25.5 18.02C25.5 18.84 24.82 19.52 24 19.52Z" fill="#CED1DC"/>
<path d="M36.02 4V7C37.34 7 38.6 7.54 39.52 8.44C40.48 9.42 41 10.68 41 12V16.84C41 18.32 40.34 19 38.84 19H35V8.02C35 7.46 35.46 7 36.02 7V4ZM36.02 4C33.8 4 32 5.8 32 8.02V22H38.84C42 22 44 20 44 16.84V12C44 9.8 43.1 7.8 41.66 6.34C40.2 4.9 38.22 4.02 36.02 4C36.04 4 36.02 4 36.02 4Z" fill="#CED1DC"/>
</svg>
