<svg width="16" height="14" viewBox="0 0 16 14" fill="none" xmlns="http://www.w3.org/2000/svg">
<path fill-rule="evenodd" clip-rule="evenodd" d="M1.62964 5.03068L2.74342 2.01537C3.15086 1.22763 3.7757 0.738582 4.50916 0.494141H11.4906C12.2241 0.738651 12.8217 1.2276 13.2563 2.01537L14.3701 5.03068H15.8098C15.9185 5.03068 16 5.11219 16 5.22084V5.81844C16 5.92709 15.9185 6.03573 15.8098 6.03573H14.9677C15.2122 6.33452 15.4567 6.68771 15.7012 7.14952C15.7012 8.96954 15.7283 10.7896 15.7283 12.6369C15.7283 13.0987 15.348 13.5062 14.8591 13.5062H14.2615C13.7725 13.5062 13.3922 13.0987 13.3922 12.6369V11.5231H2.60777V12.6369C2.60777 13.0987 2.22747 13.5062 1.73852 13.5062H1.14092C0.651965 13.5062 0.271664 13.0987 0.271664 12.6369C0.271664 10.7896 0.298804 8.96958 0.298804 7.14952C0.543315 6.68771 0.787756 6.33455 1.03227 6.03573H0.190153C0.0815067 6.03573 0 5.92709 0 5.81844V5.22084C0 5.11219 0.0815067 5.03068 0.190153 5.03068H1.62987H1.62964ZM4.64495 1.68937C4.18314 1.77088 3.88435 2.06967 3.72133 2.44997C3.3954 3.34646 3.04221 4.37873 2.74342 5.27522H13.2563C12.9575 4.37873 12.5771 3.34646 12.2783 2.44997C12.0882 2.06967 11.8165 1.77086 11.3547 1.68937H4.64495ZM12.9576 7.23112C12.4143 7.23112 11.9797 7.66579 11.9797 8.20902C11.9797 8.75235 12.4143 9.18693 12.9576 9.18693C13.4738 9.18693 13.9083 8.75225 13.9083 8.20902C13.9083 7.6657 13.4737 7.23112 12.9576 7.23112ZM3.04238 7.23112C3.5857 7.23112 4.02028 7.66579 4.02028 8.20902C4.02028 8.75235 3.58561 9.18693 3.04238 9.18693C2.52619 9.18693 2.09161 8.75225 2.09161 8.20902C2.09161 7.6657 2.52629 7.23112 3.04238 7.23112Z" fill="#000000"/>
</svg>
