<svg width="16" height="16" viewBox="0 0 16 16" fill="none" xmlns="http://www.w3.org/2000/svg">
<path d="M12.496 6.99988C12.152 6.99988 11.88 6.71988 11.88 6.38388C11.88 6.08788 11.584 5.47188 11.088 4.93588C10.6 4.41588 10.064 4.11188 9.616 4.11188C9.272 4.11188 9 3.83188 9 3.49588C9 3.15988 9.28 2.87988 9.616 2.87988C10.416 2.87988 11.256 3.31188 11.992 4.08788C12.68 4.81588 13.12 5.71988 13.12 6.37588C13.12 6.71988 12.84 6.99988 12.496 6.99988Z" fill="#000000"/>
<path d="M15.3838 7C15.0398 7 14.7678 6.72 14.7678 6.384C14.7678 3.544 12.4558 1.24 9.62381 1.24C9.27981 1.24 9.00781 0.959999 9.00781 0.624C9.00781 0.288 9.27981 0 9.61581 0C13.1358 0 15.9998 2.864 15.9998 6.384C15.9998 6.72 15.7198 7 15.3838 7Z" fill="#000000"/>
<path d="M7.24 10.36L5.76 11.84C5.448 12.152 4.952 12.152 4.632 11.848C4.544 11.76 4.456 11.68 4.368 11.592C3.544 10.76 2.8 9.888 2.136 8.976C1.48 8.064 0.952 7.152 0.568 6.248C0.192 5.336 0 4.464 0 3.632C0 3.088 0.0959999 2.568 0.288 2.088C0.48 1.6 0.784 1.152 1.208 0.752C1.72 0.248 2.28 0 2.872 0C3.096 0 3.32 0.048 3.52 0.144C3.728 0.24 3.912 0.384 4.056 0.592L5.912 3.208C6.056 3.408 6.16 3.592 6.232 3.768C6.304 3.936 6.344 4.104 6.344 4.256C6.344 4.448 6.288 4.64 6.176 4.824C6.072 5.008 5.92 5.2 5.728 5.392L5.12 6.024C5.032 6.112 4.992 6.216 4.992 6.344C4.992 6.408 5 6.464 5.016 6.528C5.04 6.592 5.064 6.64 5.08 6.688C5.224 6.952 5.472 7.296 5.824 7.712C6.184 8.128 6.568 8.552 6.984 8.976C7.064 9.056 7.152 9.136 7.232 9.216C7.552 9.528 7.56 10.04 7.24 10.36Z" fill="#000000"/>
<path d="M15.9761 13.0638C15.9761 13.2878 15.9361 13.5198 15.8561 13.7438C15.8321 13.8078 15.8081 13.8718 15.7761 13.9358C15.6401 14.2238 15.4641 14.4958 15.2321 14.7518C14.8401 15.1838 14.4081 15.4958 13.9201 15.6958C13.9121 15.6958 13.9041 15.7038 13.8961 15.7038C13.4241 15.8958 12.9121 15.9998 12.3601 15.9998C11.5441 15.9998 10.6721 15.8078 9.75208 15.4158C8.83208 15.0238 7.91208 14.4958 7.00008 13.8318C6.68808 13.5998 6.37608 13.3678 6.08008 13.1198L8.69608 10.5038C8.92008 10.6718 9.12008 10.7998 9.28808 10.8878C9.32808 10.9038 9.37608 10.9278 9.43208 10.9518C9.49608 10.9758 9.56008 10.9838 9.63208 10.9838C9.76808 10.9838 9.87208 10.9358 9.96008 10.8478L10.5681 10.2478C10.7681 10.0478 10.9601 9.89584 11.1441 9.79984C11.3281 9.68784 11.5121 9.63184 11.7121 9.63184C11.8641 9.63184 12.0241 9.66384 12.2001 9.73584C12.3761 9.80784 12.5601 9.91184 12.7601 10.0478L15.4081 11.9278C15.6161 12.0718 15.7601 12.2398 15.8481 12.4398C15.9281 12.6398 15.9761 12.8398 15.9761 13.0638Z" fill="#000000"/>
</svg>
