<svg width="148" height="39" viewBox="0 0 148 39" fill="none" xmlns="http://www.w3.org/2000/svg">
<path d="M117.201 11.7543C117.201 11.5165 117.407 11.3467 117.647 11.3467H120.97C121.21 11.3467 121.381 11.5165 121.381 11.7543V25.4451C121.381 25.6829 121.21 25.8868 120.97 25.8868H117.647C117.407 25.8868 117.201 25.6829 117.201 25.4451V11.7543Z" fill="#282F39"/>
<path d="M96.9202 25.2073L96.9887 24.1202C96.9887 24.0183 97.0572 23.9164 97.1943 23.9164C100.517 24.324 103.018 24.5279 104.834 24.5279C108.192 24.5279 109.493 23.9164 109.493 22.3197C109.493 20.3493 106.992 20.2474 104.115 20.1115C100.312 19.9416 95.9609 19.7718 95.9609 15.3214C95.9609 13.9625 95.9609 11.1089 104.012 11.1089C106.307 11.1089 109.151 11.3467 112.44 11.7883C112.542 11.8223 112.611 11.8902 112.611 11.9922L112.542 13.1132C112.542 13.2152 112.474 13.2831 112.337 13.2831C109.014 12.9094 106.444 12.7056 104.594 12.7056C100.86 12.7056 100.106 13.453 100.106 14.7439C100.106 16.5444 100.997 16.5784 105.862 16.8841C110.864 17.1899 113.467 17.5296 113.467 21.4704C113.467 24.6638 110.967 26.0906 105.382 26.0906C103.121 26.0906 100.415 25.8868 97.0915 25.4112C96.9887 25.4112 96.9202 25.3092 96.9202 25.2073Z" fill="#282F39"/>
<path d="M134.57 26.0906C132.309 26.0906 129.602 25.8868 126.279 25.4112C126.176 25.4112 126.108 25.3092 126.108 25.2413L126.176 24.0862C126.176 23.9843 126.279 23.9164 126.382 23.9164C129.705 24.324 132.206 24.5279 134.022 24.5279C137.379 24.5279 138.681 23.9164 138.681 22.3197C138.681 20.3493 136.18 20.2474 133.302 20.1115C129.499 19.9416 125.148 19.7718 125.148 15.3214C125.148 14.4042 125.285 13.385 126.313 12.5697C127.547 11.6185 129.842 11.1089 133.199 11.1089C135.495 11.1089 138.338 11.3467 141.627 11.7883C141.73 11.8223 141.798 11.8902 141.798 11.9922L141.73 13.1132C141.73 13.2152 141.627 13.3171 141.524 13.2831C138.201 12.9094 135.666 12.7056 133.782 12.7056C130.048 12.7056 129.294 13.453 129.294 14.7439C129.294 16.5444 130.185 16.5784 135.049 16.8841V16.8502V16.8841C140.051 17.1899 142.655 17.5296 142.655 21.4704C142.655 24.6638 140.154 26.0906 134.57 26.0906Z" fill="#282F39"/>
<path d="M87.9102 11.7543C87.9102 11.5165 88.1157 11.3467 88.3555 11.3467H91.6787C91.8842 11.3467 92.0898 11.5165 92.0898 11.7543V25.4451C92.0898 25.6829 91.8842 25.8868 91.6787 25.8868H88.3555C88.1157 25.8868 87.9102 25.6829 87.9102 25.4451V11.7543Z" fill="#282F39"/>
<path d="M56.116 15.8987C56.116 13.7925 55.1224 12.9092 50.0178 12.9092H45.9409V25.4789C45.9409 25.7167 45.7354 25.9205 45.4956 25.9205H41.9326C41.727 25.9205 41.5215 25.7167 41.5215 25.4789V11.7202C41.5215 11.4824 41.727 11.3125 41.9326 11.3125H50.2234C57.5548 11.3125 60.5697 12.3996 60.5697 15.7628C60.5697 17.7332 59.4734 19.1601 57.178 19.7716L56.8697 19.8395L74.1364 30.9144L47.14 19.1261H49.3326C53.6835 19.1261 56.116 18.7524 56.116 15.8987Z" fill="#282F39"/>
<path d="M85.1337 25.6827C85.0652 25.8186 84.8939 25.9205 84.7226 25.9205H80.7142C80.5429 25.9205 80.3716 25.8186 80.3031 25.6827L73.8281 13.2829C73.7253 13.0451 73.4513 12.9092 73.1772 12.9092H72.0466C71.7725 12.9092 71.5327 13.0451 71.3957 13.2829L66.4966 22.6252C66.3596 22.829 66.0855 22.931 65.8799 22.7611L64.5096 21.9118C64.304 21.7759 64.2697 21.5381 64.3725 21.3343L69.5457 11.8561C69.717 11.5163 70.0938 11.3125 70.4707 11.3125H76.8087C77.1855 11.3125 77.5281 11.5163 77.7337 11.8561L85.1337 25.2411C85.2365 25.377 85.2022 25.5468 85.1337 25.6827Z" fill="#282F39"/>
<path fill-rule="evenodd" clip-rule="evenodd" d="M148 12.8075C148 13.8606 147.452 14.3023 146.321 14.3023C145.191 14.3023 144.643 13.8606 144.643 12.8075C144.643 11.7883 145.191 11.3467 146.321 11.3467C147.452 11.3467 148 11.7883 148 12.8075ZM147.623 12.8075C147.623 11.8902 147.246 11.5165 146.321 11.5165C145.864 11.5165 145.533 11.6185 145.328 11.8223C145.122 12.0261 145.019 12.3545 145.019 12.8075C145.019 13.2604 145.122 13.5888 145.328 13.7927C145.51 13.9965 145.842 14.0984 146.321 14.0984C146.778 14.0984 147.109 13.9965 147.315 13.7927C147.498 13.5888 147.6 13.2604 147.623 12.8075ZM146.458 12.9773L147.212 13.6228H146.732L146.047 12.9773C145.979 12.9434 146.013 12.8415 146.116 12.8415C146.413 12.8415 146.607 12.8188 146.698 12.7735C146.812 12.7056 146.869 12.6036 146.869 12.4678C146.869 12.3319 146.824 12.2413 146.732 12.196C146.641 12.1507 146.458 12.128 146.184 12.128H145.944C145.899 12.128 145.876 12.1507 145.876 12.196V13.6228H145.533V12.128C145.51 12.0148 145.568 11.9582 145.705 11.9582H146.184C146.904 11.9582 147.212 12.0941 147.212 12.4678C147.212 12.6263 147.155 12.7509 147.041 12.8415C146.949 12.932 146.755 12.9773 146.458 12.9773Z" fill="#282F39"/>
<path d="M40.392 32.647C29.0864 25.6488 19.7679 25.1732 12.916 26.7359C21.0355 15.627 30.9364 9.85173 36.7262 7.88135C27.2364 12.5695 20.8984 22.6932 20.8984 22.6932C31.9299 24.0861 38.7818 31.2202 40.392 32.647Z" fill="#648AC3"/>
<path d="M38.4047 3.83887C34.876 5.16378 19.6649 12.196 9.28428 27.8232C3.52871 29.9974 0.239815 33.3267 0 33.5984L6.2352 21.5723C17.2667 11.6525 29.5315 6.45472 38.4047 3.83887Z" fill="#648AC3"/>
<path d="M43.9211 0C36.1442 1.76655 23.0229 5.43554 8.97656 16.2726L13.3275 7.9155V7.88153C19.0145 5.12979 28.0933 1.80052 43.9211 0Z" fill="#648AC3"/>
<path d="M113.707 37.675C113.775 37.675 113.878 37.709 113.947 37.7429C114.015 37.8109 114.049 37.9128 114.049 37.9808L114.084 38.3544C114.084 38.5243 113.981 38.6602 113.81 38.6942C113.159 38.7961 111.617 38.9999 109.938 38.9999C105.69 38.9999 104.525 37.6071 104.525 34.9572C104.525 32.3074 105.69 30.9146 109.938 30.9146C111.617 30.9146 113.159 31.1184 113.81 31.2203C113.981 31.2543 114.084 31.3902 114.084 31.56L114.049 31.9337C114.049 32.0017 114.015 32.1036 113.947 32.1375C113.878 32.2055 113.775 32.2395 113.707 32.2055C113.022 32.1375 111.617 31.9337 110.349 31.9337C107.403 31.9337 106.684 32.851 106.684 34.9572C106.684 37.0635 107.403 37.9808 110.349 37.9808C111.617 37.9808 113.022 37.7769 113.707 37.675Z" fill="#648AC3"/>
<path fill-rule="evenodd" clip-rule="evenodd" d="M125.903 38.5244C125.903 38.7283 125.766 38.8642 125.595 38.8642H124.019C123.847 38.8642 123.71 38.7283 123.71 38.5584L123.676 37.2335C123.608 35.9765 122.717 35.7387 121.175 35.7048L118.092 35.6708V38.5924C118.092 38.7622 117.955 38.8981 117.783 38.8981H116.345C116.173 38.8981 116.002 38.7622 116.002 38.5924V31.3563C116.002 31.1865 116.173 31.0166 116.345 31.0166H122.169C124.361 31.0166 125.697 31.4582 125.697 32.987C125.663 34.3459 124.875 34.5497 123.676 34.8894C123.539 34.9574 123.47 34.9913 123.47 35.1612C123.47 35.3311 123.539 35.365 123.71 35.399C124.601 35.5689 125.732 35.7727 125.8 36.9617L125.903 38.5244ZM123.47 33.3607C123.47 32.1377 122.785 31.9338 121.415 31.9338H118.092V34.8215L121.244 34.7875C122.545 34.7196 123.47 34.6516 123.47 33.3607Z" fill="#648AC3"/>
<path d="M142.655 38.5581C142.69 38.728 142.518 38.8979 142.313 38.8979H140.805C140.634 38.8979 140.497 38.7959 140.497 38.6261L139.675 32.2393C139.641 32.0695 139.503 31.9336 139.366 31.9336H138.784C138.647 31.9336 138.51 32.0355 138.476 32.2053L136.934 38.6261C136.9 38.762 136.763 38.8639 136.591 38.8639H133.097C132.96 38.8639 132.823 38.762 132.789 38.6261L131.213 32.2053C131.178 32.0355 131.041 31.9336 130.904 31.9336H130.356C130.185 31.9336 130.048 32.0695 130.014 32.2393L129.26 38.6261C129.26 38.7959 129.123 38.8979 128.952 38.8979H128.266C128.061 38.8979 127.924 38.728 127.924 38.5581L128.849 31.3221C128.849 31.1522 128.986 31.0503 129.157 31.0503H132.823C132.96 31.0503 133.097 31.1522 133.131 31.2881L134.639 37.7768C134.673 37.9127 134.81 38.0146 134.981 38.0146H135.495C135.632 38.0146 135.769 37.9127 135.803 37.7768L137.379 31.2881C137.414 31.1522 137.516 31.0503 137.688 31.0503H141.353C141.491 31.0503 141.628 31.1522 141.662 31.3221L142.655 38.5581Z" fill="#648AC3"/>
</svg>
