<svg xmlns="http://www.w3.org/2000/svg" xmlns:xlink="http://www.w3.org/1999/xlink" width="20px" height="20px" viewBox="0 0 20 20" version="1.1">
<g id="surface1">
<path style=" stroke:none;fill-rule:nonzero;fill:#dea0b4;fill-opacity:1;" d="M 9.304688 0.222656 C 7.179688 0.371094 5.175781 1.171875 3.539062 2.519531 C 3.269531 2.742188 2.65625 3.335938 2.421875 3.609375 C 0.558594 5.742188 -0.28125 8.480469 0.0859375 11.257812 C 0.332031 13.183594 1.175781 15 2.5 16.480469 C 2.742188 16.75 3.296875 17.28125 3.5625 17.5 C 5.148438 18.796875 7.027344 19.5625 9.082031 19.757812 C 9.460938 19.796875 10.195312 19.804688 10.582031 19.78125 C 12.320312 19.671875 13.871094 19.1875 15.304688 18.304688 C 15.988281 17.886719 16.546875 17.445312 17.15625 16.835938 C 18.492188 15.507812 19.421875 13.789062 19.804688 11.9375 C 20.0625 10.6875 20.0625 9.347656 19.804688 8.078125 C 19.476562 6.457031 18.734375 4.953125 17.632812 3.671875 C 17.40625 3.40625 16.800781 2.804688 16.523438 2.574219 C 14.925781 1.230469 13.027344 0.441406 10.917969 0.242188 C 10.609375 0.210938 9.625 0.199219 9.304688 0.222656 Z M 10.640625 1.820312 C 11.78125 1.914062 12.761719 2.179688 13.753906 2.671875 C 15.367188 3.460938 16.667969 4.738281 17.476562 6.320312 C 17.953125 7.25 18.203125 8.09375 18.332031 9.171875 C 18.371094 9.511719 18.367188 10.558594 18.320312 10.921875 C 18.195312 11.902344 17.9375 12.765625 17.515625 13.609375 C 16.695312 15.242188 15.347656 16.5625 13.683594 17.363281 C 12.820312 17.78125 11.945312 18.03125 10.9375 18.15625 C 10.523438 18.203125 9.484375 18.203125 9.0625 18.15625 C 8.050781 18.03125 7.199219 17.785156 6.316406 17.359375 C 5.488281 16.960938 4.824219 16.5 4.164062 15.871094 C 2.753906 14.519531 1.914062 12.835938 1.679688 10.890625 C 1.632812 10.46875 1.632812 9.53125 1.679688 9.109375 C 1.863281 7.585938 2.414062 6.234375 3.339844 5.035156 C 3.832031 4.398438 4.539062 3.734375 5.214844 3.269531 C 5.902344 2.796875 6.777344 2.382812 7.59375 2.140625 C 8.085938 1.996094 8.773438 1.867188 9.316406 1.820312 C 9.609375 1.796875 10.359375 1.796875 10.640625 1.820312 Z M 10.640625 1.820312 "/>
<path style=" stroke:none;fill-rule:nonzero;fill:#dea0b4;fill-opacity:1;" d="M 9.871094 3.140625 C 9.515625 3.183594 9.226562 3.316406 8.988281 3.550781 C 8.695312 3.835938 8.578125 4.144531 8.597656 4.578125 C 8.617188 4.960938 8.726562 5.207031 8.988281 5.472656 C 9.121094 5.601562 9.1875 5.652344 9.328125 5.71875 C 9.59375 5.84375 9.714844 5.871094 10.0625 5.871094 C 10.398438 5.867188 10.570312 5.832031 10.835938 5.703125 C 11.019531 5.617188 11.285156 5.371094 11.382812 5.199219 C 11.699219 4.644531 11.578125 3.894531 11.105469 3.480469 C 10.960938 3.351562 10.667969 3.207031 10.480469 3.171875 C 10.285156 3.132812 10.039062 3.121094 9.871094 3.140625 Z M 9.871094 3.140625 "/>
<path style=" stroke:none;fill-rule:nonzero;fill:#dea0b4;fill-opacity:1;" d="M 8.925781 6.972656 L 7.632812 6.980469 L 7.632812 8.578125 L 8.152344 8.578125 C 8.554688 8.578125 8.679688 8.585938 8.679688 8.605469 C 8.6875 8.617188 8.695312 9.90625 8.703125 11.464844 L 8.714844 14.300781 L 7.613281 14.300781 L 7.613281 15.84375 L 9.007812 15.835938 C 9.773438 15.828125 10.859375 15.820312 11.425781 15.820312 L 12.449219 15.820312 L 12.449219 14.28125 L 11.535156 14.28125 L 11.523438 13.183594 C 11.515625 12.582031 11.503906 10.9375 11.5 9.523438 L 11.484375 6.960938 L 10.847656 6.964844 C 10.5 6.96875 9.632812 6.972656 8.925781 6.972656 Z M 8.925781 6.972656 "/>
</g>
</svg>