<svg width="7" height="13" viewBox="0 0 7 13" fill="none" xmlns="http://www.w3.org/2000/svg">
<path d="M6.29248 2.62499L2.41248 6.50499L6.29248 10.385C6.38519 10.4775 6.45875 10.5874 6.50894 10.7084C6.55913 10.8293 6.58496 10.959 6.58496 11.09C6.58496 11.221 6.55913 11.3507 6.50894 11.4716C6.45875 11.5926 6.38519 11.7025 6.29248 11.795C5.90248 12.185 5.27248 12.185 4.88248 11.795L0.292476 7.20499C-0.0975237 6.81499 -0.0975237 6.18499 0.292476 5.79499L4.88248 1.205C5.27248 0.814995 5.90248 0.814995 6.29248 1.205C6.67248 1.595 6.68248 2.23499 6.29248 2.62499Z" fill="#5D5D5D"/>
</svg>
