<svg width="267" height="71" viewBox="0 0 267 71" fill="none" xmlns="http://www.w3.org/2000/svg">
<path d="M210.981 21.3387C210.981 20.907 211.351 20.5986 211.783 20.5986H217.765C218.197 20.5986 218.505 20.907 218.505 21.3387V46.1927C218.505 46.6244 218.197 46.9945 217.765 46.9945H211.783C211.351 46.9945 210.981 46.6244 210.981 46.1927V21.3387Z" fill="#282F39"/>
<path d="M174.471 45.7606L174.594 43.7871C174.594 43.602 174.718 43.417 174.964 43.417C180.947 44.1571 185.449 44.5271 188.717 44.5271C194.761 44.5271 197.105 43.417 197.105 40.5184C197.105 36.9414 192.603 36.7564 187.422 36.5097C180.577 36.2013 172.744 35.893 172.744 27.8139C172.744 25.347 172.744 20.1665 187.237 20.1665C191.369 20.1665 196.488 20.5982 202.409 21.4C202.594 21.4616 202.717 21.585 202.717 21.77L202.594 23.8052C202.594 23.9902 202.47 24.1135 202.224 24.1135C196.241 23.4351 191.616 23.0651 188.286 23.0651C181.563 23.0651 180.207 24.4219 180.207 26.7655C180.207 30.0341 181.81 30.0958 190.567 30.6508C199.572 31.2059 204.259 31.8226 204.259 38.9766C204.259 44.7738 199.757 47.3641 189.704 47.3641C185.634 47.3641 180.762 46.994 174.779 46.1306C174.594 46.1306 174.471 45.9456 174.471 45.7606Z" fill="#282F39"/>
<path d="M242.25 47.3641C238.18 47.3641 233.307 46.994 227.325 46.1306C227.14 46.1306 227.017 45.9456 227.017 45.8223L227.14 43.7254C227.14 43.5404 227.325 43.417 227.51 43.417C233.492 44.1571 237.995 44.5271 241.263 44.5271C247.307 44.5271 249.651 43.417 249.651 40.5184C249.651 36.9414 245.149 36.7564 239.968 36.5097C233.122 36.2013 225.29 35.893 225.29 27.8139C225.29 26.1487 225.537 24.2986 227.387 22.8184C229.607 21.0916 233.739 20.1665 239.783 20.1665C243.915 20.1665 249.034 20.5982 254.955 21.4C255.14 21.4616 255.263 21.585 255.263 21.77L255.14 23.8052C255.14 23.9902 254.955 24.1752 254.769 24.1135C248.787 23.4351 244.223 23.0651 240.832 23.0651C234.109 23.0651 232.752 24.4219 232.752 26.7655C232.752 30.0341 234.356 30.0958 243.113 30.6508V30.5892V30.6508C252.118 31.2059 256.805 31.8226 256.805 38.9766C256.805 44.7738 252.303 47.3641 242.25 47.3641Z" fill="#282F39"/>
<path d="M158.251 21.3387C158.251 20.907 158.621 20.5986 159.053 20.5986H165.035C165.405 20.5986 165.775 20.907 165.775 21.3387V46.1927C165.775 46.6244 165.405 46.9945 165.035 46.9945H159.053C158.621 46.9945 158.251 46.6244 158.251 46.1927V21.3387Z" fill="#282F39"/>
<path d="M101.019 28.8624C101.019 25.0387 99.2306 23.4352 90.0414 23.4352H82.7023V46.254C82.7023 46.6857 82.3323 47.0558 81.9006 47.0558H75.4867C75.1166 47.0558 74.7466 46.6857 74.7466 46.254V21.2767C74.7466 20.845 75.1166 20.5366 75.4867 20.5366H90.4114C103.609 20.5366 109.036 22.5101 109.036 28.6157C109.036 32.1927 107.063 34.783 102.931 35.8931L102.376 36.0164L133.459 56.1216L84.8609 34.7213H88.8079C96.6403 34.7213 101.019 34.0429 101.019 28.8624Z" fill="#282F39"/>
<path d="M153.256 46.6241C153.133 46.8708 152.825 47.0558 152.516 47.0558H145.301C144.992 47.0558 144.684 46.8708 144.56 46.6241L132.904 24.1136C132.719 23.6819 132.226 23.4352 131.733 23.4352H129.697C129.204 23.4352 128.772 23.6819 128.526 24.1136L119.706 41.0736C119.46 41.4436 118.966 41.6286 118.596 41.3202L116.129 39.7784C115.759 39.5317 115.698 39.1 115.883 38.73L125.195 21.5234C125.504 20.9067 126.182 20.5366 126.86 20.5366H138.27C138.948 20.5366 139.565 20.9067 139.935 21.5234L153.256 45.8223C153.441 46.069 153.38 46.3774 153.256 46.6241Z" fill="#282F39"/>
<path fill-rule="evenodd" clip-rule="evenodd" d="M266.425 23.2505C266.425 25.1624 265.438 25.9641 263.403 25.9641C261.368 25.9641 260.381 25.1624 260.381 23.2505C260.381 21.4004 261.368 20.5986 263.403 20.5986C265.438 20.5986 266.425 21.4004 266.425 23.2505ZM265.746 23.2505C265.746 21.5854 265.068 20.907 263.403 20.907C262.581 20.907 261.984 21.092 261.614 21.462C261.244 21.8321 261.059 22.4282 261.059 23.2505C261.059 24.0728 261.244 24.669 261.614 25.0391C261.943 25.4091 262.539 25.5941 263.403 25.5941C264.225 25.5941 264.821 25.4091 265.191 25.0391C265.52 24.669 265.705 24.0728 265.746 23.2505ZM263.649 23.5589L265.006 24.7307H264.143L262.909 23.5589C262.786 23.4972 262.848 23.3122 263.033 23.3122C263.567 23.3122 263.917 23.2711 264.081 23.1889C264.287 23.0655 264.39 22.8805 264.39 22.6338C264.39 22.3871 264.307 22.2227 264.143 22.1404C263.978 22.0582 263.65 22.0171 263.156 22.0171H262.724C262.642 22.0171 262.601 22.0582 262.601 22.1404V24.7307H261.984V22.0171C261.943 21.8115 262.046 21.7087 262.293 21.7087H263.156C264.451 21.7087 265.006 21.9554 265.006 22.6338C265.006 22.9216 264.904 23.1478 264.698 23.3122C264.533 23.4767 264.184 23.5589 263.649 23.5589Z" fill="#282F39"/>
<path d="M72.7113 59.2668C52.3594 46.5623 35.5845 45.6989 23.25 48.5358C37.8664 28.3689 55.6897 17.8846 66.1124 14.3076C49.0291 22.8184 37.6197 41.1968 37.6197 41.1968C57.4782 43.7254 69.8127 56.6766 72.7113 59.2668Z" fill="#648AC3"/>
<path d="M69.1348 6.96875C62.7826 9.37398 35.4 22.1402 16.7132 50.5095C6.35227 54.4566 0.431707 60.5005 0 60.9938L11.2244 39.1618C31.0829 21.1534 53.1617 11.7175 69.1348 6.96875Z" fill="#648AC3"/>
<path d="M79.0636 0C65.064 3.20697 41.4434 9.8676 16.1577 29.5411L23.9901 14.3697V14.308C34.2278 9.31254 50.571 3.26864 79.0636 0Z" fill="#648AC3"/>
<path d="M204.691 68.3949C204.814 68.3949 204.999 68.4566 205.123 68.5182C205.246 68.6416 205.308 68.8266 205.308 68.9499L205.369 69.6283C205.369 69.9367 205.184 70.1834 204.876 70.2451C203.704 70.4301 200.929 70.8001 197.907 70.8001C190.259 70.8001 188.163 68.2715 188.163 63.4611C188.163 58.6506 190.259 56.1221 197.907 56.1221C200.929 56.1221 203.704 56.4921 204.876 56.6771C205.184 56.7388 205.369 56.9855 205.369 57.2938L205.308 57.9722C205.308 58.0956 205.246 58.2806 205.123 58.3423C204.999 58.4656 204.814 58.5273 204.691 58.4656C203.457 58.3423 200.929 57.9722 198.647 57.9722C193.343 57.9722 192.048 59.6374 192.048 63.4611C192.048 67.2848 193.343 68.9499 198.647 68.9499C200.929 68.9499 203.457 68.5799 204.691 68.3949Z" fill="#648AC3"/>
<path fill-rule="evenodd" clip-rule="evenodd" d="M226.646 69.9363C226.646 70.3063 226.399 70.553 226.091 70.553H223.254C222.946 70.553 222.699 70.3063 222.699 69.9979L222.637 67.5927C222.514 65.3108 220.911 64.8791 218.135 64.8174L212.585 64.7558V70.0596C212.585 70.368 212.338 70.6147 212.03 70.6147H209.439C209.131 70.6147 208.823 70.368 208.823 70.0596V56.9234C208.823 56.615 209.131 56.3066 209.439 56.3066H219.924C223.871 56.3066 226.276 57.1084 226.276 59.8836C226.214 62.3505 224.796 62.7206 222.637 63.3373C222.391 63.4606 222.267 63.5223 222.267 63.8307C222.267 64.139 222.391 64.2007 222.699 64.2624C224.303 64.5708 226.338 64.9408 226.461 67.0993L226.646 69.9363ZM222.267 60.562C222.267 58.3418 221.034 57.9718 218.567 57.9718H212.585V63.214L218.259 63.1523C220.602 63.0289 222.267 62.9056 222.267 60.562Z" fill="#648AC3"/>
<path d="M256.804 69.9983C256.866 70.3066 256.558 70.615 256.188 70.615H253.474C253.166 70.615 252.919 70.43 252.919 70.1216L251.439 58.5272C251.377 58.2188 251.13 57.9721 250.884 57.9721H249.835C249.589 57.9721 249.342 58.1572 249.28 58.4655L246.505 70.1216C246.443 70.3683 246.197 70.5533 245.888 70.5533H239.598C239.351 70.5533 239.104 70.3683 239.043 70.1216L236.206 58.4655C236.144 58.1572 235.897 57.9721 235.651 57.9721H234.664C234.356 57.9721 234.109 58.2188 234.047 58.5272L232.69 70.1216C232.69 70.43 232.444 70.615 232.135 70.615H230.902C230.532 70.615 230.285 70.3066 230.285 69.9983L231.95 56.862C231.95 56.5537 232.197 56.3687 232.505 56.3687H239.104C239.351 56.3687 239.598 56.5537 239.659 56.8004L242.373 68.5798C242.435 68.8265 242.681 69.0115 242.99 69.0115H243.915C244.161 69.0115 244.408 68.8265 244.47 68.5798L247.307 56.8004C247.368 56.5537 247.553 56.3687 247.862 56.3687H254.461C254.707 56.3687 254.954 56.5537 255.016 56.862L256.804 69.9983Z" fill="#648AC3"/>
</svg>
