<svg width="20" height="20" viewBox="0 0 20 20" fill="none" xmlns="http://www.w3.org/2000/svg">
<path d="M18.3332 18.3333H1.6665C1.32484 18.3333 1.0415 18.0499 1.0415 17.7083C1.0415 17.3666 1.32484 17.0833 1.6665 17.0833H18.3332C18.6748 17.0833 18.9582 17.3666 18.9582 17.7083C18.9582 18.0499 18.6748 18.3333 18.3332 18.3333Z" fill="#8E99A7"/>
<path d="M8.125 3.33341V18.3334H11.875V3.33341C11.875 2.41675 11.5 1.66675 10.375 1.66675H9.625C8.5 1.66675 8.125 2.41675 8.125 3.33341Z" fill="#8E99A7"/>
<path d="M2.5 8.33341V18.3334H5.83333V8.33341C5.83333 7.41675 5.5 6.66675 4.5 6.66675H3.83333C2.83333 6.66675 2.5 7.41675 2.5 8.33341Z" fill="#8E99A7"/>
<path d="M14.1665 12.4999V18.3333H17.4998V12.4999C17.4998 11.5833 17.1665 10.8333 16.1665 10.8333H15.4998C14.4998 10.8333 14.1665 11.5833 14.1665 12.4999Z" fill="#8E99A7"/>
</svg>
