<svg width="20" height="20" viewBox="0 0 20 20" fill="none" xmlns="http://www.w3.org/2000/svg">
<path d="M5.83317 1.6665H4.99984C2.49984 1.6665 1.6665 3.15817 1.6665 4.99984V5.83317V17.4998C1.6665 18.1915 2.44984 18.5832 2.99984 18.1665L4.42484 17.0998C4.75817 16.8498 5.22484 16.8832 5.52484 17.1832L6.90817 18.5748C7.23317 18.8998 7.7665 18.8998 8.0915 18.5748L9.4915 17.1748C9.78317 16.8832 10.2498 16.8498 10.5748 17.0998L11.9998 18.1665C12.5498 18.5748 13.3332 18.1832 13.3332 17.4998V3.33317C13.3332 2.4165 14.0832 1.6665 14.9998 1.6665H5.83317ZM4.97484 11.6748C4.5165 11.6748 4.1415 11.2998 4.1415 10.8415C4.1415 10.3832 4.5165 10.0082 4.97484 10.0082C5.43317 10.0082 5.80817 10.3832 5.80817 10.8415C5.80817 11.2998 5.43317 11.6748 4.97484 11.6748ZM4.97484 8.3415C4.5165 8.3415 4.1415 7.9665 4.1415 7.50817C4.1415 7.04984 4.5165 6.67484 4.97484 6.67484C5.43317 6.67484 5.80817 7.04984 5.80817 7.50817C5.80817 7.9665 5.43317 8.3415 4.97484 8.3415ZM9.99984 11.4665H7.49984C7.15817 11.4665 6.87484 11.1832 6.87484 10.8415C6.87484 10.4998 7.15817 10.2165 7.49984 10.2165H9.99984C10.3415 10.2165 10.6248 10.4998 10.6248 10.8415C10.6248 11.1832 10.3415 11.4665 9.99984 11.4665ZM9.99984 8.13317H7.49984C7.15817 8.13317 6.87484 7.84984 6.87484 7.50817C6.87484 7.1665 7.15817 6.88317 7.49984 6.88317H9.99984C10.3415 6.88317 10.6248 7.1665 10.6248 7.50817C10.6248 7.84984 10.3415 8.13317 9.99984 8.13317Z" fill="#8E99A7"/>
<path d="M15.0085 1.6665V2.9165C15.5585 2.9165 16.0835 3.1415 16.4668 3.5165C16.8668 3.92484 17.0835 4.44984 17.0835 4.99984V7.0165C17.0835 7.63317 16.8085 7.9165 16.1835 7.9165H14.5835V3.3415C14.5835 3.10817 14.7752 2.9165 15.0085 2.9165V1.6665ZM15.0085 1.6665C14.0835 1.6665 13.3335 2.4165 13.3335 3.3415V9.1665H16.1835C17.5002 9.1665 18.3335 8.33317 18.3335 7.0165V4.99984C18.3335 4.08317 17.9585 3.24984 17.3585 2.6415C16.7502 2.0415 15.9252 1.67484 15.0085 1.6665C15.0085 1.6665 15.0168 1.6665 15.0085 1.6665Z" fill="#8E99A7"/>
</svg>
