<svg width="20" height="20" viewBox="0 0 20 20" fill="none" xmlns="http://www.w3.org/2000/svg">
<path d="M18.3332 10C18.3332 5.40835 14.5915 1.66669 9.99984 1.66669C5.40817 1.66669 1.6665 5.40835 1.6665 10C1.6665 12.4167 2.70817 14.5917 4.35817 16.1167C4.35817 16.125 4.35817 16.125 4.34984 16.1334C4.43317 16.2167 4.53317 16.2834 4.6165 16.3584C4.6665 16.4 4.70817 16.4417 4.75817 16.475C4.90817 16.6 5.07484 16.7167 5.23317 16.8334C5.2915 16.875 5.3415 16.9084 5.39984 16.95C5.55817 17.0584 5.72484 17.1584 5.89984 17.25C5.95817 17.2834 6.02484 17.325 6.08317 17.3584C6.24984 17.45 6.42484 17.5334 6.60817 17.6084C6.67484 17.6417 6.7415 17.675 6.80817 17.7C6.9915 17.775 7.17484 17.8417 7.35817 17.9C7.42484 17.925 7.4915 17.95 7.55817 17.9667C7.75817 18.025 7.95817 18.075 8.15817 18.125C8.2165 18.1417 8.27484 18.1584 8.3415 18.1667C8.57484 18.2167 8.80817 18.25 9.04984 18.275C9.08317 18.275 9.1165 18.2834 9.14984 18.2917C9.43317 18.3167 9.7165 18.3334 9.99984 18.3334C10.2832 18.3334 10.5665 18.3167 10.8415 18.2917C10.8748 18.2917 10.9082 18.2834 10.9415 18.275C11.1832 18.25 11.4165 18.2167 11.6498 18.1667C11.7082 18.1584 11.7665 18.1334 11.8332 18.125C12.0332 18.075 12.2415 18.0334 12.4332 17.9667C12.4998 17.9417 12.5665 17.9167 12.6332 17.9C12.8165 17.8334 13.0082 17.775 13.1832 17.7C13.2498 17.675 13.3165 17.6417 13.3832 17.6084C13.5582 17.5334 13.7332 17.45 13.9082 17.3584C13.9748 17.325 14.0332 17.2834 14.0915 17.25C14.2582 17.15 14.4248 17.0584 14.5915 16.95C14.6498 16.9167 14.6998 16.875 14.7582 16.8334C14.9248 16.7167 15.0832 16.6 15.2332 16.475C15.2832 16.4334 15.3248 16.3917 15.3748 16.3584C15.4665 16.2834 15.5582 16.2084 15.6415 16.1334C15.6415 16.125 15.6415 16.125 15.6332 16.1167C17.2915 14.5917 18.3332 12.4167 18.3332 10ZM14.1165 14.1417C11.8582 12.625 8.15817 12.625 5.88317 14.1417C5.5165 14.3834 5.2165 14.6667 4.9665 14.975C3.69984 13.6917 2.9165 11.9334 2.9165 10C2.9165 6.09169 6.0915 2.91669 9.99984 2.91669C13.9082 2.91669 17.0832 6.09169 17.0832 10C17.0832 11.9334 16.2998 13.6917 15.0332 14.975C14.7915 14.6667 14.4832 14.3834 14.1165 14.1417Z" fill="#8E99A7"/>
<path d="M10 5.77502C8.275 5.77502 6.875 7.17502 6.875 8.90002C6.875 10.5917 8.2 11.9667 9.95833 12.0167C9.98333 12.0167 10.0167 12.0167 10.0333 12.0167C10.05 12.0167 10.075 12.0167 10.0917 12.0167C10.1 12.0167 10.1083 12.0167 10.1083 12.0167C11.7917 11.9584 13.1167 10.5917 13.125 8.90002C13.125 7.17502 11.725 5.77502 10 5.77502Z" fill="#8E99A7"/>
</svg>
