<svg width="18" height="18" viewBox="0 0 18 18" fill="none" xmlns="http://www.w3.org/2000/svg">
<path d="M12.4915 0.666504H5.50817C2.47484 0.666504 0.666504 2.47484 0.666504 5.50817V12.4915C0.666504 15.5248 2.47484 17.3332 5.50817 17.3332H12.4915C15.5248 17.3332 17.3332 15.5248 17.3332 12.4915V5.50817C17.3332 2.47484 15.5248 0.666504 12.4915 0.666504ZM7.30817 11.4165L5.43317 13.2915C5.30817 13.4165 5.14984 13.4748 4.9915 13.4748C4.83317 13.4748 4.6665 13.4165 4.54984 13.2915L3.92484 12.6665C3.67484 12.4248 3.67484 12.0248 3.92484 11.7832C4.1665 11.5415 4.55817 11.5415 4.80817 11.7832L4.9915 11.9665L6.42484 10.5332C6.6665 10.2915 7.05817 10.2915 7.30817 10.5332C7.54984 10.7748 7.54984 11.1748 7.30817 11.4165ZM7.30817 5.58317L5.43317 7.45817C5.30817 7.58317 5.14984 7.6415 4.9915 7.6415C4.83317 7.6415 4.6665 7.58317 4.54984 7.45817L3.92484 6.83317C3.67484 6.5915 3.67484 6.1915 3.92484 5.94984C4.1665 5.70817 4.55817 5.70817 4.80817 5.94984L4.9915 6.13317L6.42484 4.69984C6.6665 4.45817 7.05817 4.45817 7.30817 4.69984C7.54984 4.9415 7.54984 5.3415 7.30817 5.58317ZM13.6332 12.8498H9.25817C8.9165 12.8498 8.63317 12.5665 8.63317 12.2248C8.63317 11.8832 8.9165 11.5998 9.25817 11.5998H13.6332C13.9832 11.5998 14.2582 11.8832 14.2582 12.2248C14.2582 12.5665 13.9832 12.8498 13.6332 12.8498ZM13.6332 7.0165H9.25817C8.9165 7.0165 8.63317 6.73317 8.63317 6.3915C8.63317 6.04984 8.9165 5.7665 9.25817 5.7665H13.6332C13.9832 5.7665 14.2582 6.04984 14.2582 6.3915C14.2582 6.73317 13.9832 7.0165 13.6332 7.0165Z" fill="#8E99A7"/>
</svg>
