<svg width="20" height="20" viewBox="0 0 20 20" fill="none" xmlns="http://www.w3.org/2000/svg">
<path d="M18.3334 8.12508C17.9917 8.12508 17.7084 7.84175 17.7084 7.50008V5.83342C17.7084 3.68341 16.3167 2.29175 14.1667 2.29175H5.83342C3.68341 2.29175 2.29175 3.68341 2.29175 5.83342V7.50008C2.29175 7.84175 2.00841 8.12508 1.66675 8.12508C1.32508 8.12508 1.04175 7.84175 1.04175 7.50008V5.83342C1.04175 2.96675 2.96675 1.04175 5.83342 1.04175H14.1667C17.0334 1.04175 18.9584 2.96675 18.9584 5.83342V7.50008C18.9584 7.84175 18.6751 8.12508 18.3334 8.12508Z" fill="#8E99A7"/>
<path d="M14.1667 18.9583H5.83342C2.96675 18.9583 1.04175 17.0333 1.04175 14.1667V12.5C1.04175 12.1583 1.32508 11.875 1.66675 11.875C2.00841 11.875 2.29175 12.1583 2.29175 12.5V14.1667C2.29175 16.3167 3.68341 17.7083 5.83342 17.7083H14.1667C16.3167 17.7083 17.7084 16.3167 17.7084 14.1667V12.5C17.7084 12.1583 17.9917 11.875 18.3334 11.875C18.6751 11.875 18.9584 12.1583 18.9584 12.5V14.1667C18.9584 17.0333 17.0334 18.9583 14.1667 18.9583Z" fill="#8E99A7"/>
<path d="M13.6666 6.84172L10.5332 5.15005C10.1999 4.97505 9.80822 4.97505 9.47489 5.15005L6.33322 6.84172C6.10822 6.96672 5.96655 7.20838 5.96655 7.47505C5.96655 7.75005 6.10822 7.99172 6.33322 8.11672L9.46655 9.80838C9.63322 9.90005 9.81655 9.94172 9.99989 9.94172C10.1832 9.94172 10.3666 9.90005 10.5332 9.80838L13.6666 8.11672C13.8916 7.99172 14.0332 7.75005 14.0332 7.47505C14.0332 7.20838 13.8916 6.96672 13.6666 6.84172Z" fill="#8E99A7"/>
<path d="M8.95 10.3916L6.03333 8.93328C5.80833 8.82494 5.55 8.83328 5.33333 8.96661C5.125 9.09994 5 9.32494 5 9.57494V12.3333C5 12.8083 5.26667 13.2416 5.69167 13.4499L8.60833 14.9083C8.70833 14.9583 8.81667 14.9833 8.93333 14.9833C9.06667 14.9833 9.19167 14.9499 9.30833 14.8749C9.525 14.7416 9.65 14.5166 9.65 14.2666V11.5083C9.64167 11.0333 9.38333 10.6083 8.95 10.3916Z" fill="#8E99A7"/>
<path d="M14.6584 8.96661C14.4418 8.83328 14.1834 8.82494 13.9584 8.93328L11.0418 10.3916C10.6168 10.6083 10.3501 11.0333 10.3501 11.5083V14.2666C10.3501 14.5166 10.4751 14.7416 10.6918 14.8749C10.8084 14.9499 10.9334 14.9833 11.0668 14.9833C11.1751 14.9833 11.2834 14.9583 11.3918 14.9083L14.3084 13.4499C14.7334 13.2333 15.0001 12.8083 15.0001 12.3333V9.57494C15.0001 9.32494 14.8751 9.09994 14.6584 8.96661Z" fill="#8E99A7"/>
</svg>
