<svg width="20" height="20" viewBox="0 0 20 20" fill="none" xmlns="http://www.w3.org/2000/svg">
<path d="M18.3332 8.12508C17.9915 8.12508 17.7082 7.84175 17.7082 7.50008V5.83342C17.7082 3.68341 16.3165 2.29175 14.1665 2.29175H5.83317C3.68317 2.29175 2.2915 3.68341 2.2915 5.83342V7.50008C2.2915 7.84175 2.00817 8.12508 1.6665 8.12508C1.32484 8.12508 1.0415 7.84175 1.0415 7.50008V5.83342C1.0415 2.96675 2.9665 1.04175 5.83317 1.04175H14.1665C17.0332 1.04175 18.9582 2.96675 18.9582 5.83342V7.50008C18.9582 7.84175 18.6748 8.12508 18.3332 8.12508Z" fill="#8E99A7"/>
<path d="M14.1665 18.9583H5.83317C2.9665 18.9583 1.0415 17.0333 1.0415 14.1667V12.5C1.0415 12.1583 1.32484 11.875 1.6665 11.875C2.00817 11.875 2.2915 12.1583 2.2915 12.5V14.1667C2.2915 16.3167 3.68317 17.7083 5.83317 17.7083H14.1665C16.3165 17.7083 17.7082 16.3167 17.7082 14.1667V12.5C17.7082 12.1583 17.9915 11.875 18.3332 11.875C18.6748 11.875 18.9582 12.1583 18.9582 12.5V14.1667C18.9582 17.0333 17.0332 18.9583 14.1665 18.9583Z" fill="#8E99A7"/>
<path d="M13.6668 6.84172L10.5335 5.15005C10.2001 4.97505 9.80846 4.97505 9.47513 5.15005L6.33346 6.84172C6.10846 6.96672 5.9668 7.20838 5.9668 7.47505C5.9668 7.75005 6.10846 7.99172 6.33346 8.11672L9.4668 9.80838C9.63346 9.90005 9.8168 9.94172 10.0001 9.94172C10.1835 9.94172 10.3668 9.90005 10.5335 9.80838L13.6668 8.11672C13.8918 7.99172 14.0335 7.75005 14.0335 7.47505C14.0335 7.20838 13.8918 6.96672 13.6668 6.84172Z" fill="#8E99A7"/>
<path d="M8.95 10.3916L6.03333 8.93328C5.80833 8.82494 5.55 8.83328 5.33333 8.96661C5.125 9.09994 5 9.32494 5 9.57494V12.3333C5 12.8083 5.26667 13.2416 5.69167 13.4499L8.60833 14.9083C8.70833 14.9583 8.81667 14.9833 8.93333 14.9833C9.06667 14.9833 9.19167 14.9499 9.30833 14.8749C9.525 14.7416 9.65 14.5166 9.65 14.2666V11.5083C9.64167 11.0333 9.38333 10.6083 8.95 10.3916Z" fill="#8E99A7"/>
<path d="M14.6584 8.96661C14.4418 8.83328 14.1834 8.82494 13.9584 8.93328L11.0418 10.3916C10.6168 10.6083 10.3501 11.0333 10.3501 11.5083V14.2666C10.3501 14.5166 10.4751 14.7416 10.6918 14.8749C10.8084 14.9499 10.9334 14.9833 11.0668 14.9833C11.1751 14.9833 11.2834 14.9583 11.3918 14.9083L14.3084 13.4499C14.7334 13.2333 15.0001 12.8083 15.0001 12.3333V9.57494C15.0001 9.32494 14.8751 9.09994 14.6584 8.96661Z" fill="#8E99A7"/>
</svg>
