<svg width="16" height="18" viewBox="0 0 16 18" fill="none" xmlns="http://www.w3.org/2000/svg">
<path d="M15.1834 6.04158C14.3084 2.19159 10.9501 0.458252 8.00008 0.458252C8.00008 0.458252 8.00008 0.458252 7.99175 0.458252C5.05008 0.458252 1.68341 2.18325 0.808413 6.03325C-0.166587 10.3333 2.46675 13.9749 4.85008 16.2666C5.73341 17.1166 6.86675 17.5416 8.00008 17.5416C9.13341 17.5416 10.2667 17.1166 11.1417 16.2666C13.5251 13.9749 16.1584 10.3416 15.1834 6.04158ZM8.00008 10.2166C6.55008 10.2166 5.37508 9.04158 5.37508 7.59159C5.37508 6.14158 6.55008 4.96658 8.00008 4.96658C9.45008 4.96658 10.6251 6.14158 10.6251 7.59159C10.6251 9.04158 9.45008 10.2166 8.00008 10.2166Z" fill="#8E99A7"/>
</svg>
