<svg id="OBJECTS" xmlns="http://www.w3.org/2000/svg" viewBox="0 0 200 200"><defs><style>.cls-1{fill:#fc6a5a;}.cls-2{fill:#d35450;}.cls-3{fill:#f19c7c;}.cls-4{fill:#c47d66;}.cls-5{fill:#352c38;}.cls-6{fill:#5d8584;}.cls-7{fill:#6f9b99;}.cls-8{fill:#a06653;}.cls-9{fill:#fff;}</style></defs><title>avatar</title><rect id="bg" x="-0.24" y="0.34" width="200" height="200"/><path class="cls-1" d="M141.78,48.93s2.67,19,10.67,31.67c11.54,18.26-3.33,20.66-.33,33.33s26,23.33-1.34,52.33c-17.89,19-39.33-18-39.33-18l-6-48.33Z"/><path class="cls-2" d="M133,79.84c-2.89-2.16-5.69-4.39-8.44-6.68L105.45,96.8l6,42.67a70,70,0,0,0,12.84,14.14c2-2.17,6.56,7.89,9.16,7,8.67-3,24.33-19.67,13-32.34C132.91,113.14,149.12,95.93,133,79.84Z"/><path class="cls-3" d="M119.65,140.94c-8.48-4.62-6.17-27-6.17-27l-12.7.82V114l-1.36.4-1.36-.4v.81L85.36,114s2.31,22.37-6.17,27-58.6,6.94-53.2,58.61H172.86C178.26,147.88,128.14,145.57,119.65,140.94Z"/><path class="cls-4" d="M83.58,135.17q15.23-2.26,30.42-4.68a67.69,67.69,0,0,1-.52-16.54l-12.7.82V114l-1.36.4-1.36-.4v.81L85.36,114S86.7,127,83.58,135.17Z"/><path class="cls-5" d="M131.51,179.26a79.83,79.83,0,0,1,1-34.4c-2.15-.63-4.15-1.16-5.93-1.64-.81,9.34-1.91,18.82-5.42,27.23a44.49,44.49,0,0,1-4.88,8.81Z"/><path class="cls-6" d="M147,149.72c-8.39,11.47-26.36,19.41-47.19,19.41S61,161.19,52.56,149.72c-14.92,7-29.63,20.53-26.57,49.83H173.52C176.58,170.25,161.87,156.76,147,149.72Z"/><path class="cls-7" d="M96,185.93c29.63,0,55.56-8.57,69.82-21.38C160.7,157.61,153.85,153,147,149.72c-8.39,11.47-26.36,19.41-47.19,19.41S61,161.19,52.56,149.72c-8.15,3.84-16.23,9.62-21.39,18.84C46.06,179.11,69.53,185.93,96,185.93Z"/><path class="cls-4" d="M74.59,81.22c-2.5-7.76-8.42-6-9-5.77s-6.69,1-5.64,9S65.75,97,70.17,95.73C74.72,95,77.1,89,74.59,81.22Z"/><path class="cls-4" d="M124.49,81.22c2.5-7.76,8.41-6,9-5.77s6.7,1,5.64,9S133.32,97,128.9,95.73C124.35,95,122,89,124.49,81.22Z"/><path class="cls-3" d="M68.52,69.47c3.1-34,28.94-32.09,31.38-31.83,2.43-.26,28.27-2.16,31.37,31.83,3.12,34.19-12.11,56.53-31.37,55.3C80.64,126,65.41,103.66,68.52,69.47Z"/><path class="cls-1" d="M81.28,42.1s3.17,25.83,28.84,30.83L103.78,57.1S106,76.26,131.45,75.26c0,0,9.33,4.34,6,14.34a20.51,20.51,0,0,0,5.67-20.67c-3.5-13,4.66-13.83-8.34-33C123.32,19,85.78,17.1,81.28,42.1Z"/><path class="cls-1" d="M88.45,36.6s-12.33-10-21.67,1.33-7,29-15.66,40-7.34,20.67,3.33,31-30,20-17,45.67,45.33,12,47.67-8.34,1-24.66,1-24.66-13.67-10.67-16-27.67,1.66-25.33,9-31.33S93.12,51.26,88.45,36.6Z"/><path class="cls-2" d="M43.45,142.6c-2.72-5.25-3.11-9.34-2.14-12.67-5.49,6.29-9.2,14.13-3.86,24.67,13,25.66,45.33,12,47.67-8.34,0-.45.1-.88.14-1.32C75,153,53.48,162,43.45,142.6Z"/><path class="cls-8" d="M104.35,86.47a22.9,22.9,0,0,1,1.82,4.86c.21.83.42,1.66.56,2.51s.29,1.69.38,2.54l0,.4-.22.2c-.69.63-1.41,1.25-2.13,1.85s-1.47,1.2-2.26,1.74c.52-.81,1.09-1.56,1.66-2.32s1.16-1.48,1.77-2.19l-.17.59c-.25-.82-.49-1.64-.67-2.48s-.35-1.68-.5-2.52A23.44,23.44,0,0,1,104.35,86.47Z"/><path class="cls-9" d="M113.07,106.67c-6.15,6-16.57,5.65-24.46.32"/><path class="cls-5" d="M124.27,74.94a45.42,45.42,0,0,0-4.15-2.12,13.1,13.1,0,0,0-4-1.09,8.58,8.58,0,0,0-3.94.54,15.79,15.79,0,0,0-2,.86c-.68.34-1.32.79-2.11,1.13a11.78,11.78,0,0,1,1.27-2.15,8.75,8.75,0,0,1,1.9-1.73,6.49,6.49,0,0,1,1.15-.66c.41-.17.84-.32,1.27-.47a8.65,8.65,0,0,1,2.73-.21,9.41,9.41,0,0,1,4.84,2A9.76,9.76,0,0,1,124.27,74.94Z"/><path class="cls-5" d="M92.08,74.94a45.42,45.42,0,0,0-4.15-2.12,13.1,13.1,0,0,0-4-1.09,8.58,8.58,0,0,0-3.94.54,15.79,15.79,0,0,0-2,.86c-.68.34-1.32.79-2.11,1.13a11.78,11.78,0,0,1,1.27-2.15A9,9,0,0,1,79,70.38a6.49,6.49,0,0,1,1.15-.66c.41-.17.84-.32,1.27-.47A8.65,8.65,0,0,1,84.19,69,9.41,9.41,0,0,1,89,71,9.67,9.67,0,0,1,92.08,74.94Z"/><path class="cls-5" d="M91.06,87.26a10.18,10.18,0,0,0-1.91-3.87,4.48,4.48,0,0,0-3.49-1.61,5.08,5.08,0,0,0-2,.3,3.68,3.68,0,0,0-1.53,1.16,8.26,8.26,0,0,0-1.39,4,6.35,6.35,0,0,1,.62-4.55A4.47,4.47,0,0,1,83.26,81a5.89,5.89,0,0,1,2.43-.45,5,5,0,0,1,4.2,2.24A7.25,7.25,0,0,1,91.06,87.26Z"/><path class="cls-5" d="M120,86.79a10,10,0,0,0-1.9-3.86,4.46,4.46,0,0,0-3.49-1.61,4.84,4.84,0,0,0-2,.29,3.76,3.76,0,0,0-1.53,1.16,8.19,8.19,0,0,0-1.39,4,6.28,6.28,0,0,1,.62-4.54,4.31,4.31,0,0,1,1.85-1.68,5.84,5.84,0,0,1,2.42-.45,5.07,5.07,0,0,1,4.21,2.24A7.25,7.25,0,0,1,120,86.79Z"/></svg>